<svg width="256" height="256" viewBox="0 0 256 256" fill="none" xmlns="http://www.w3.org/2000/svg">
  <defs>
    <linearGradient id="bg" x1="32" y1="24" x2="224" y2="232" gradientUnits="userSpaceOnUse">
      <stop stop-color="#0A5568"/>
      <stop offset="1" stop-color="#0D7C8C"/>
    </linearGradient>
    <linearGradient id="panel" x1="56" y1="64" x2="200" y2="188" gradientUnits="userSpaceOnUse">
      <stop stop-color="#0B1F2A"/>
      <stop offset="1" stop-color="#143744"/>
    </linearGradient>
  </defs>
  <rect x="20" y="20" width="216" height="216" rx="52" fill="url(#bg)"/>
  <path d="M128 44L182 64V116C182 154 159 182 128 196C97 182 74 154 74 116V64L128 44Z" fill="#091922" fill-opacity="0.32"/>
  <rect x="56" y="70" width="144" height="118" rx="18" fill="url(#panel)" stroke="#3AC0D0" stroke-opacity="0.5" stroke-width="4"/>
  <circle cx="74" cy="88" r="4" fill="#4CD4E4"/>
  <circle cx="88" cy="88" r="4" fill="#4CD4E4" fill-opacity="0.7"/>
  <circle cx="102" cy="88" r="4" fill="#4CD4E4" fill-opacity="0.45"/>
  <path d="M84 122L104 138L84 154" stroke="#E2F7FF" stroke-width="10" stroke-linecap="round" stroke-linejoin="round"/>
  <rect x="116" y="148" width="54" height="10" rx="5" fill="#9CEFFF"/>
  <path d="M128 44L182 64V116C182 154 159 182 128 196C97 182 74 154 74 116V64L128 44Z" stroke="#7AE8F5" stroke-width="4" stroke-linejoin="round"/>
</svg>
